<svg xmlns="http://www.w3.org/2000/svg" width="128" height="128" viewBox="0 0 128 128">
  <rect x="0" y="0" width="128" height="128" rx="28" fill="#86EFAC"/>
  <path d="M40.33154296875 88.298828125V94.4541015625H35.49755859375Q27.47314453125 94.4541015625 24.75 92.0693359375Q22.02685546875 89.6845703125 22.02685546875 82.5625V75.6337890625Q22.02685546875 70.767578125 20.302734375 68.91455078125Q18.57861328125 67.0615234375 14.06689453125 67.0615234375H12.06884765625V60.90625H14.06689453125Q18.57861328125 60.90625 20.302734375 59.0693359375Q22.02685546875 57.232421875 22.02685546875 52.333984375V45.4052734375Q22.02685546875 38.283203125 24.75 35.91455078125Q27.47314453125 33.5458984375 35.49755859375 33.5458984375H40.33154296875V39.6689453125H36.36767578125Q33.01611328125 39.6689453125 31.88818359375 41.0224609375Q30.76025390625 42.3759765625 30.76025390625 46.984375V53.7197265625Q30.76025390625 59.037109375 29.18115234375 61.1962890625Q27.60205078125 63.35546875 23.54150390625 63.9677734375Q27.60205078125 64.64453125 29.18115234375 66.8359375Q30.76025390625 69.02734375 30.76025390625 74.3125V80.9189453125Q30.76025390625 85.5595703125 31.88818359375 86.92919921875Q33.01611328125 88.298828125 36.36767578125 88.298828125Z" fill="#0F172A" stroke="#0F172A" stroke-width="1.6" stroke-linejoin="round"/>
  <path d="M47.96728515625 35.576171875H58.18310546875L71.58935546875 70.5419921875V35.576171875H79.96826171875V83.6904296875H69.81689453125L56.34619140625 48.724609375V83.6904296875H47.96728515625Z" fill="#0F172A" stroke="#0F172A" stroke-width="1.6" stroke-linejoin="round"/>
  <path d="M87.66845703125 88.298828125H91.56787109375Q94.91943359375 88.298828125 96.07958984375 86.9130859375Q97.23974609375 85.52734375 97.23974609375 80.9189453125V74.3125Q97.23974609375 69.02734375 98.81884765625 66.8359375Q100.39794921875 64.64453125 104.42626953125 63.9677734375Q100.36572265625 63.35546875 98.802734375 61.1962890625Q97.23974609375 59.037109375 97.23974609375 53.7197265625V46.984375Q97.23974609375 42.4404296875 96.095703125 41.0546875Q94.95166015625 39.6689453125 91.56787109375 39.6689453125H87.66845703125V33.5458984375H92.50244140625Q100.49462890625 33.5458984375 103.185546875 35.91455078125Q105.87646484375 38.283203125 105.87646484375 45.4052734375V52.333984375Q105.87646484375 57.2001953125 107.6328125 59.05322265625Q109.38916015625 60.90625 113.93310546875 60.90625H115.93115234375V67.0615234375H113.93310546875Q109.38916015625 67.0615234375 107.6328125 68.9306640625Q105.87646484375 70.7998046875 105.87646484375 75.6337890625V82.5625Q105.87646484375 89.6845703125 103.185546875 92.0693359375Q100.49462890625 94.4541015625 92.50244140625 94.4541015625H87.66845703125Z" fill="#0F172A" stroke="#0F172A" stroke-width="1.6" stroke-linejoin="round"/>
</svg>
